<svg xmlns="http://www.w3.org/2000/svg" width="64" height="64" viewBox="0 0 64 64"><path fill="#7C8288" d="M31.999 7c-13.809.003-24.998 11.192-24.999 25.001.001 13.807 11.19 24.996 24.999 24.999 13.809-.003 24.999-11.192 25.001-24.999-.002-13.809-11.192-24.998-25.001-25.001zm.803 12.901c-7.901.001-15.098 5.74-15.104 13.178 0 .264.009.532.028.802.004.066.05.121.114.138.065.015.131-.011.166-.066 2.475-3.84 5.641-6.953 10.483-6.953 6.243.002 11.181 4.81 11.183 11.221 0 6.085-4.561 11.062-10.356 11.554-8.633-1.29-15.277-8.748-15.294-17.775.019-9.927 8.051-17.96 17.978-17.978 9.928.018 17.959 8.051 17.977 17.978-.003 1.93-.312 3.789-.878 5.531.026-.376.04-.757.039-1.141-.018-9.106-7.315-16.488-16.336-16.489z"/></svg>