<svg xmlns="http://www.w3.org/2000/svg" width="64" height="64" viewBox="0 0 64 64"><path d="M52.555 24.069l.059.181.015-.005 2.858-.929 4.735-1.539-.605-1.862-5.867-.289c-3.514-6.153-9.556-10.676-16.707-12.144l-2.085-5.482h-1.958v8h.194c8.84.475 16.306 6.179 19.361 14.069zm-44.042-.752l2.858.929.015.005.059-.181c3.055-7.891 10.521-13.595 19.361-14.07h.194v-8h-1.958l-2.085 5.483c-7.151 1.469-13.193 5.992-16.707 12.144l-5.867.289-.605 1.862 4.735 1.539zm48.359 5.906l4.574-3.68-.605-1.862-7.608 2.472.061.186c.482 1.808.749 3.703.749 5.661 0 6.938-3.226 13.132-8.252 17.175l-.049.035.257.354 1.509 2.077 2.936 4.041 1.584-1.151-1.539-5.671c4.067-4.452 6.553-10.37 6.553-16.861 0-.939-.068-1.863-.17-2.776zm-12.745 21.17l-.005-.007-.086.062c-3.463 2.268-7.596 3.594-12.036 3.594s-8.573-1.326-12.037-3.594l-.086-.062-.005.007-.871 1.198-3.827 5.267 1.584 1.151 4.913-3.213c3.152 1.434 6.644 2.246 10.327 2.246s7.175-.811 10.327-2.246l4.913 3.213 1.584-1.151-3.827-5.267-.868-1.198zm-27.633 1.248l1.509-2.077.257-.354-.049-.035c-5.026-4.043-8.253-10.237-8.253-17.175 0-1.958.267-3.853.749-5.661l.061-.186-7.608-2.472-.605 1.862 4.574 3.68c-.103.913-.171 1.837-.171 2.777 0 6.491 2.487 12.408 6.553 16.861l-1.539 5.671 1.584 1.151 2.938-4.042z"/></svg>