<svg xmlns="http://www.w3.org/2000/svg" width="64" height="64" viewBox="0 0 64 64"><path d="M25 21h4v10h-4zm10 0h4v10h-4zm-10 10l5 12h4l5-12h-4l-2.031 6h-1.969l-2-6zm-12.838-8.693c3.157-6.498 9.415-11.217 16.838-12.232v-3.024c-8.753 1.05-16.128 6.629-19.711 14.322l2.873.934zm2.807 27.937l1.778-2.447c-4.18-4.014-6.789-9.651-6.789-15.89 0-1.329.125-2.629.351-3.893l-2.88-.936c-.307 1.563-.472 3.177-.472 4.829.001 7.236 3.089 13.761 8.012 18.337zm20.031-40.169c7.423 1.015 13.681 5.734 16.838 12.232l2.873-.933c-3.583-7.694-10.958-13.273-19.711-14.323v3.024zm18.691 17.939c.226 1.265.351 2.564.351 3.893 0 6.239-2.609 11.876-6.789 15.89l1.778 2.447c4.923-4.576 8.011-11.101 8.011-18.337 0-1.652-.165-3.266-.472-4.829l-2.879.936zm-11.286 23.318c-3.101 1.668-6.644 2.617-10.405 2.617s-7.304-.949-10.405-2.617l-1.775 2.444c3.608 2.018 7.761 3.173 12.181 3.173s8.573-1.155 12.181-3.173l-1.777-2.444z"/><path d="M50.094 41.031l1.854-5.707 3.804 1.236-1.854 5.707zm6.967 1.211l1.236-3.804 2.853.927-1.236 3.804zM46.184 17.582l-4.854-3.527 2.351-3.236 4.854 3.527zm3.305-6.251l-3.236-2.351 1.763-2.427 3.236 2.351zM22.671 14.057l-4.854 3.527-2.351-3.236 4.854-3.527zm-4.923-5.076l-3.236 2.351-1.763-2.427 3.236-2.351zM12.051 35.327l1.854 5.707-3.804 1.236-1.854-5.707zm-6.349 3.114l1.236 3.804-2.853.927-1.236-3.804zM29 52h6v4h-6zm1 7h4v3h-4z" fill="#00827E"/></svg>