<svg xmlns="http://www.w3.org/2000/svg" width="64" height="64" viewBox="0 0 64 64"><path d="M35.275 46.274c0 1.809-1.466 3.275-3.276 3.275s-3.275-1.466-3.275-3.275 1.466-3.276 3.275-3.276 3.276 1.467 3.276 3.276m-28.275-16.491s2.604 3.908 5.196 5.987c2.037 1.633 3.66 2.475 4.561 2.475.73 0 2.63-1.683 2.63-1.683l-3.366-2.208s-1.472.105-4.207-1.578c-2.734-1.683-4.814-2.993-4.814-2.993m50 0s-2.605 3.908-5.196 5.987c-2.037 1.633-3.66 2.475-4.561 2.475-.729 0-2.629-1.683-2.629-1.683l3.365-2.208s1.473.105 4.208-1.578c2.733-1.683 4.813-2.993 4.813-2.993M21.03 38.311s-2.796 2.033-2.796 5.93c0 5.422 7.201 9.234 7.201 9.234s-3.388-4.066-3.388-6.862c0-2.796 3.388-5.083 3.388-5.083l-4.405-3.219zm21.94 0s2.796 2.033 2.796 5.93c0 5.422-7.202 9.234-7.202 9.234s3.388-4.066 3.388-6.862c0-2.796-3.388-5.083-3.388-5.083l4.406-3.219zm5.295-14.91c0-8.472-7.342-12.876-7.342-12.876s3.727 2.598 3.727 8.923c0 6.672-5.17 9.77-7.876 10.935-.327-.222-.677-.42-1.045-.594-1.053-.75-2.339-1.192-3.73-1.192-1.39 0-2.677.442-3.729 1.192-.369.174-.719.373-1.045.594-2.707-1.166-7.876-4.263-7.876-10.935 0-6.325 3.727-8.923 3.727-8.923s-7.342 4.405-7.342 12.876c0 8.444 7.518 13.633 9.915 15.344 1.353 1.729 3.69 2.872 6.35 2.872 2.659 0 4.997-1.143 6.35-2.872 2.398-1.711 9.916-6.899 9.916-15.344"/></svg>