<svg xmlns="http://www.w3.org/2000/svg" width="64" height="64" viewBox="0 0 64 64"><path d="M38.136 52.329c1.263-1.123 1.263-.737 1.755-1.228.491-.491 1.509-.737 1.825-1.158.316-.421.281-.632.526-.632.246 0 .421.211.737-.141.316-.351.702-.737.702-1.123s.14-1.509.14-1.79.491-2.351.491-2.913c0-.561-.07-1.439-.386-1.439s-.877.07-.912.316c-.035.246-.561 1.684-.632 2.281-.07.597-.386 1.334-.807 1.509-.421.176-1.439 0-1.86-.07s-1.158.07-1.263.421c-.105.351.14.561.105.807l-.526 1.439c-.105.421-.246 1.018-.246 1.333 0 .316.07 1.158-.561 1.193-.632.035-.772-.842-.772-1.123s-.211-.807-.561-.807c-.351 0-.877.526-1.088.632-.211.105-.842.211-.842.386 0 .175.07.491-.105.456-.175-.035-.698-1.496-1.263-1.684-.105-.035.211 2.597-.327 2.129-.399-.347.047-1.334-.339-1.357-.28-.017-.597.175-.983.175s-.702-.281-.877-.281c-.176 0-.561.105-.772.035-.21-.07-.491-.351-.667-.316-.176.035-.281.07-.456-.07-.175-.141-.14-.597-.281-.386-.14.211-.351.491-.351.737s-.035.562-.14.772c-.105.211-.667 1.018-.667 1.263s-.386.597-.351.842.246.281.246.456-.14.526.035.702c.175.175.526.421.772.491s.526-.141.667.035c.141.176.456.281 1.228.983s1.018 1.088 1.299 1.298c.281.211.737.035.877.211.141.176.456.246.561.246.105 0 .456-.141.667-.141.21 0 1.088.281 1.228.141.141-.141 1.123-1.369 1.439-1.825.316-.456 1.193-1.228 1.474-1.439.278-.208 1.261-1.366 1.261-1.366zm7.276-18.05c-.047-1.006-.226-1.684-.491-2.012-.491-.608-2.386-2.457-3.299-3.135-.912-.678-2.503-1.895-2.831-1.872-.327.024-.842.608-.819.959.023.351.187.468.023.678-.164.21-.936.819-.842.491.093-.327.561-.444.608-.795.047-.351.164-2.386.327-2.994.164-.608.398-2.714.561-3.86.164-1.146.515-4.001.561-5.147.047-1.146.094-3.111-.047-3.977-.14-.866-.936-2.877-1.848-3.79-.911-.912-3.133-1.848-4.49-1.825-1.357.023-5.919.819-7.229 1.521-1.31.702-6.27 2.457-4.562 2.574 1.708.117 4.375-.561 5.264-.538.889.023 2.503-.351 3.345.07.842.421 1.568.889 1.661 1.638.093.749.725 3.018 1.076 5.03.351 2.012 1.544 9.896 1.287 9.92-.257.023-2.316.117-3.018.351-.702.234-3.135 1.404-3.93 2.597-.795 1.193-1.755 3.135-1.872 3.79-.117.655-.215 1.442-.398 2.082-.281.983-1.435 1.667-1.334 1.801.281.374.193.509.263.86s.404.895.772 1.211c.369.316 1.176 1.386 1.193 1.193.018-.193-.351-.895-.474-1.176s-.684-1.123-.614-1.228c.07-.105-.246-.339-.193-.146s.281.842.175.643c-.122-.23-.38-.871-.257-.819.123.053.626.076.731.199.105.123.948.825 1.281.983s.842.246 1.018.404c.175.158.942.415.749.696-.193.281-.977.076-1.398.409-.421.333-.714.743-.977.795-.263.053-1.084.634-1.076 1.047.012.614.561 1.387.983 1.843.282.305 1 1.07.807.737-.193-.333-.509-.79-.684-1.018-.175-.228-.368-.333-.21-.526s1.404-.719 1.474-.421c.07.298.158.649.175 1.14.018.491.035 1.351.07 1.878.035.526-.018.912.07 1.07.088.158.316.211.544.211s.298.035.298-.053.07-.228.193-.228.246.456.281.544c.035.087.404.07.597.07s.456 0 .509-.053c.053-.052.088-.158.281-.14.193.017.158.158.246.246s.673.047.872.041c.632-.018 1.006.07 1.006-.093s-.117-.889.093-.889c.211 0 .679-.211.866-.094.187.117.421.491.561.795.14.304.426 1.249.561 1.1.444-.491.374-1.661.608-1.848 0 0 .262-.21.491-.164.819.164.83.772 1.041.772 0 0 .981.002 1.135-.234.152-.234.643-1.568.515-1.591-.257-.047-.889 0-1.029.211-.14.211-.848.601-.912.468-.152-.316.538-.994.292-.994 0 0-.76-.561-1.146-.889-.386-.327-1.614-1.158-1.135-1.158.48 0 .889.269 1.029.444.14.175.678.667.924.526.246-.141.69-.959.912-.901.222.059.269.304.573.304.304 0 .351-.257.585-.257.234 0 2.059.093 2.433-.211.374-.304.749-.585.749-.702s.421-.398.515-.164c.094.234.187.187.047.468s-.426 1.335-.983 1.52c-.561.187-.983.351-1.427.374 0 0-1.029.257-.679.257.351 0 .725-.093 1.1-.117.374-.024 1.287-.094 1.497-.281.21-.187.491-1.006.655-1.31.164-.304.451-.75.398-1.029-.117-.608-.655-1.216-.655-1.591s1.546-1.768 2.129-2.316c.398-.374 1.076-1.123 1.216-1.497.141-.374.707-1.287.633-2.878zm-16.172 8.873v.298l-.211.649c-.088.649-.123.649-.614.702-.271.029-.632-.614-.667-.79l.228-.561c.07-.491.386-.737.509-.912.123-.176-.123-.193-.14-.386-.018-.193.211-.211.474-.193.263.018.439.684.526.807.088.123-.125.053-.105.386zm3.544-32.653c-.86-1.035-2.667-.86-4.246-.86-1.579 0 4.264-.526 5.194-.474.93.053 1.527 1.246 2.808 2.948s.877 3.351.807 5.071-.456 7.703-.544 8.843c-.088 1.14-.123 2.948-.456 3.123s-1.667-1.105-1.772-1.298c-.105-.193-.177-2.23-.333-3.825-.176-1.79-.158-1.456-.263-2.737-.105-1.281.491 1.772.597 2.421.105.649.456 3.018.632 3.474.175.456.386.193.702-.456.316-.649.211-3.738.193-6.633-.018-2.895-.088-5.439-.088-5.58s-.439-.123-.93-.737c-.494-.613-1.441-2.245-2.301-3.28zm-.754 33.882c-.123.088-.123.597-.404.719-.281.123-.544.035-.702-.122-.158-.158-.439-.333-.719-.527-.281-.193-.202-.598-.158-1.263.018-.263-.035-.544-.158-.772-.123-.228-.158-.439 0-.597.158-.158.456.175.597.316.14.141.895 1 1.351 1.527.456.525.316.631.193.719zm5.989-1.866c-.141 0-1.778 0-1.918-.047-.14-.047-.936-.047-1.216-.047-.281 0-.561-.281-.795-.608-.234-.328-1.076-.608-1.825-.842-.749-.234-1.357-.842-1.544-.889-.187-.047.421-.327.795-.561.374-.234 1.191-.87 2.106-1.684.907-.807.409-.351.708-.754.298-.404.544-.842.965-1.369s1.193-1.211 1.702-1.211c.509 0 .754.667.982.965.228.298.421.877.632 1.228.211.351-.509-.614-.649-.877-.141-.263-.561-.702-1.088-.772-.526-.07-1.088.561-1.286.778-.184.201 1.076.257 1.45 1.31.148.416.468.983.655 1.17.187.187.14 1.123.14 1.31 0 .187.234-.047.281-.328.047-.281.141.421.141.655 0 .234-.328.608-.421.842-.093.234-.421 1.31-.702 1.45-.281.141.561.047.889-.093.327-.141 1.029-1.263 1.17-1.497.138-.235-1.032 1.871-1.172 1.871zm-11.557-19.044c-.643-2.163-1.989-4.889-2.877-5.638-.889-.749-1.778-.866-2.386-1.263-.608-.398-1.521-.866-1.918-.866-.398 0-2.036.304-2.831.421s-2.152.468-3.158.725c-1.006.257-1.638.725-2.012.842s-1.263.211-1.357.304c-.093.093-.327.351-.585.468-.257.117-2.176.725-2.457 1.053-.281.327-.468 1.146-.07 1.38.398.234 1.31.07 1.848-.07s1.404-.211 2.644-.281c1.24-.07 2.714-.047 3.392.023.678.07 2.152.094 3.088.515.936.421 2.035 1.591 2.878 2.714s2.129 2.48 2.901 3.345c.772.866 2.932 2.77 2.901 2.34-.023-.327-1.068-1.388-1.287-1.614-.678-.702-1.287-1.708-.983-1.451.304.257 1.006 1.053 1.24 1.217.234.164.608.047.327-.444s-1.17-2.901-1.684-4.118c-.515-1.217-.912-2.48-1.31-2.971-.398-.491-1.006-1.146-1.193-.936-.187.211-1.029 1.053-1.029.772 0-.281 0-.889-.421-1.146-.421-.257-.678-.351-1.006-.281-.327.07-.632.093-.795.327-.164.234-.702.14-.468.398s.585.632.117.585c-.468-.047-.772-.304-1.053-.327l-.702-.281c-.187-.07-.187.187-.561.187-.374 0-.444-.164-.608-.164s-.211.211-.468.211-.281-.281-.491-.281-.398.257-.842.304c-.444.047-1.567.07-1.918.304-.351.234-2.714.351-1.146-.234s2.41-1.146 3.182-1.38c.772-.234 2.41-.959 2.995-1.029.585-.07 1.755-.374 2.433-.187s2.082.912 2.737 1.263c.655.351 1.778 1.076 2.691 3.299.912 2.223 2.082 5.474 2.293 5.989.21.515.491 1.287.749 1.217.257-.07.608-.351.608-.749s-.894-2.76-1.408-4.492z"/></svg>