<svg xmlns="http://www.w3.org/2000/svg" width="64" height="64" viewBox="0 0 64 64"><path fill="#818181" d="M52.831 32.906c0-1.193-.123-2.355-.317-3.494l8.434-5.912-10.307.164c-2.984-5.994-8.76-10.342-15.624-11.345l-3.017-9.85-3.029 9.852c-6.862 1.007-12.636 5.359-15.617 11.354l-10.302-.174 8.432 5.924c-.192 1.135-.315 2.293-.315 3.482 0 5.83 2.415 11.102 6.288 14.886l-3.348 9.738 8.233-6.184c2.89 1.52 6.172 2.391 9.657 2.391 3.49 0 6.776-.873 9.669-2.396l8.222 6.189-3.339-9.746c3.869-3.785 6.28-9.053 6.28-14.879zm-11.134 13.182l-3.648-11.227 9.557-6.944c.505 1.575.783 3.249.783 4.989 0 5.407-2.643 10.196-6.692 13.182zm5.85-18.088h-11.807l-3.65-11.234c7.197.04 13.301 4.234 15.457 11.234zm-15.627-11.234l-3.65 11.234h-11.817c2.157-7 8.266-11.199 15.467-11.234zm-16.309 16.14c0-1.742.279-3.419.785-4.995l9.565 6.95-3.65 11.233c-4.053-2.986-6.7-7.778-6.7-13.188zm6.836 13.29l9.558-6.944 9.553 6.94c-2.694 1.944-5.989 3.103-9.558 3.103-3.566 0-6.86-1.157-9.553-3.099z"/></svg>