<?xml version="1.0" encoding="utf-8"?>
<!-- Generator: Adobe Illustrator 17.0.0, SVG Export Plug-In . SVG Version: 6.00 Build 0)  -->
<!DOCTYPE svg PUBLIC "-//W3C//DTD SVG 1.1//EN" "http://www.w3.org/Graphics/SVG/1.1/DTD/svg11.dtd">
<svg version="1.1" id="Layer_1" xmlns="http://www.w3.org/2000/svg" xmlns:xlink="http://www.w3.org/1999/xlink" x="0px" y="0px"
	 width="64px" height="64px" viewBox="0 0 64 64" enable-background="new 0 0 64 64" xml:space="preserve">
<polyline points="31,2 31,10 26,10 29.042,2 "/>
<polyline points="33,2 33,10 38,10 34.958,2 "/>
<polyline points="3.159,23.681 10.768,26.153 9.223,30.908 2.554,25.543 "/>
<polyline points="3.777,21.778 11.386,24.251 12.931,19.495 4.382,19.916 "/>
<polyline points="15.175,56.858 19.878,50.386 23.923,53.325 16.76,58.009 "/>
<polyline points="13.557,55.683 18.26,49.211 14.215,46.272 11.973,54.532 "/>
<polyline points="50.443,55.683 45.74,49.211 49.785,46.272 52.027,54.532 "/>
<polyline points="48.825,56.858 44.122,50.386 40.077,53.325 47.24,58.009 "/>
<polyline points="60.223,21.778 52.614,24.251 51.069,19.495 59.618,19.916 "/>
<polyline points="60.841,23.681 53.232,26.153 54.777,30.908 61.446,25.543 "/>
<g>
	<path d="M33,9.984c8.992,0.404,16.596,6.22,19.629,14.262l2.858-0.929C52.059,14.074,43.323,7.392,33,6.984V9.984z"/>
	<path d="M11.371,24.246C14.404,16.204,22.008,10.388,31,9.984v-3c-10.323,0.408-19.059,7.09-22.487,16.333L11.371,24.246z"/>
	<path d="M53.247,26.148c0.514,1.865,0.795,3.826,0.795,5.852c0,6.959-3.245,13.172-8.299,17.214l1.763,2.427
		c5.802-4.59,9.535-11.686,9.535-19.641c0-2.35-0.332-4.622-0.94-6.78L53.247,26.148z"/>
	<path d="M44.127,50.393c-3.481,2.303-7.649,3.649-12.127,3.649s-8.646-1.346-12.127-3.649l-1.765,2.43
		c3.978,2.663,8.756,4.219,13.893,4.219s9.914-1.556,13.893-4.219L44.127,50.393z"/>
	<path d="M16.494,51.641l1.763-2.427C13.204,45.172,9.958,38.959,9.958,32c0-2.026,0.28-3.987,0.795-5.852L7.899,25.22
		c-0.608,2.158-0.94,4.43-0.94,6.78C6.958,39.956,10.692,47.051,16.494,51.641z"/>
</g>
</svg>
