<?xml version="1.0" encoding="utf-8"?>
<!-- Generator: Adobe Illustrator 17.0.0, SVG Export Plug-In . SVG Version: 6.00 Build 0)  -->
<!DOCTYPE svg PUBLIC "-//W3C//DTD SVG 1.1//EN" "http://www.w3.org/Graphics/SVG/1.1/DTD/svg11.dtd">
<svg version="1.1" id="Layer_1" xmlns="http://www.w3.org/2000/svg" xmlns:xlink="http://www.w3.org/1999/xlink" x="0px" y="0px"
	 width="64px" height="64px" viewBox="0 0 64 64" enable-background="new 0 0 64 64" xml:space="preserve">
<g>
	<path fill="#818181" d="M32,53.737c-11.486,0-20.831-9.345-20.831-20.831c0-11.486,9.345-20.831,20.831-20.831
		c11.486,0,20.831,9.345,20.831,20.831C52.831,44.393,43.486,53.737,32,53.737z M32,16.518c-9.037,0-16.389,7.352-16.389,16.389
		c0,9.037,7.352,16.389,16.389,16.389c9.037,0,16.389-7.352,16.389-16.389C48.389,23.87,41.037,16.518,32,16.518z"/>
	<polygon fill="#818181" points="32,2.469 28.884,12.603 35.126,12.674 	"/>
	<polygon fill="#818181" points="3.052,23.501 11.727,29.596 13.724,23.682 	"/>
	<polygon fill="#818181" points="14.109,57.531 22.586,51.164 17.579,47.437 	"/>
	<polygon fill="#818181" points="49.891,57.531 46.455,47.501 41.363,51.112 	"/>
	<polygon fill="#818181" points="60.948,23.501 50.347,23.669 52.208,29.627 	"/>
	<polygon fill="#818181" points="32.005,16.26 35.74,27.756 47.828,27.756 38.049,34.861 41.784,46.357 32.005,39.252 
		22.226,46.357 25.961,34.861 16.182,27.756 28.27,27.756 	"/>
</g>
</svg>
