<?xml version="1.0" encoding="UTF-8" standalone="no"?>
<!-- Created with Inkscape (http://www.inkscape.org/) -->

<svg
   xmlns:dc="http://purl.org/dc/elements/1.1/"
   xmlns:cc="http://creativecommons.org/ns#"
   xmlns:rdf="http://www.w3.org/1999/02/22-rdf-syntax-ns#"
   xmlns:svg="http://www.w3.org/2000/svg"
   xmlns="http://www.w3.org/2000/svg"
   xmlns:sodipodi="http://sodipodi.sourceforge.net/DTD/sodipodi-0.dtd"
   xmlns:inkscape="http://www.inkscape.org/namespaces/inkscape"
   width="64px"
   height="64px"
   id="svg2987"
   version="1.1"
   inkscape:version="0.48.2 r9819"
   sodipodi:docname="New document 2">
  <defs
     id="defs2989">
    <inkscape:perspective
       sodipodi:type="inkscape:persp3d"
       inkscape:vp_x="0 : 32 : 1"
       inkscape:vp_y="0 : 1000 : 0"
       inkscape:vp_z="53.181818 : 23.636364 : 1"
       inkscape:persp3d-origin="32 : 21.333333 : 1"
       id="perspective3001" />
  </defs>
  <sodipodi:namedview
     id="base"
     pagecolor="#ffffff"
     bordercolor="#666666"
     borderopacity="1.0"
     inkscape:pageopacity="0.0"
     inkscape:pageshadow="2"
     inkscape:zoom="5.5"
     inkscape:cx="53.727273"
     inkscape:cy="28.43031"
     inkscape:current-layer="layer1"
     showgrid="true"
     inkscape:document-units="px"
     inkscape:grid-bbox="true"
     inkscape:window-width="1920"
     inkscape:window-height="948"
     inkscape:window-x="1920"
     inkscape:window-y="0"
     inkscape:window-maximized="1" />
  <metadata
     id="metadata2992">
    <rdf:RDF>
      <cc:Work
         rdf:about="">
        <dc:format>image/svg+xml</dc:format>
        <dc:type
           rdf:resource="http://purl.org/dc/dcmitype/StillImage" />
        <dc:title></dc:title>
      </cc:Work>
    </rdf:RDF>
  </metadata>
  <g
     id="layer1"
     inkscape:label="Layer 1"
     inkscape:groupmode="layer">
    <rect
       style="fill:#000000;fill-opacity:1;stroke:none"
       id="rect3824"
       width="27"
       height="36"
       x="20"
       y="18" />
    <path
       style="fill:#000000;fill-opacity:1;stroke:none"
       d="M 15 15.03125 L 15 48.96875 L 20.09375 48.96875 L 20.09375 18 C 20.061654 18.001016 20.032343 18 20 18 C 18.353927 18 17.017322 16.673224 17 15.03125 L 15 15.03125 z "
       id="rect3826" />
    <path
       sodipodi:type="arc"
       style="fill:#000000;fill-opacity:1;stroke:none"
       id="path3828"
       sodipodi:cx="11.045455"
       sodipodi:cy="16.5"
       sodipodi:rx="4.590909"
       sodipodi:ry="4.590909"
       d="m 15.636364,16.5 a 4.590909,4.590909 0 1 1 -9.181818,0 4.590909,4.590909 0 1 1 9.181818,0 z"
       transform="matrix(1.0891089,0,0,1.0891089,7.9702965,31.029703)" />
    <path
       style="fill:#000000;fill-opacity:1;stroke:none"
       d="M 20 10 C 17.238576 10 15 12.238576 15 15 C 15 17.761424 17.238576 20 20 20 C 21.624034 20 23.055407 19.199545 23.96875 18 L 20 18 C 18.343146 18 17 16.656854 17 15 C 17 13.343146 18.343146 12 20 12 L 23.96875 12 C 23.055407 10.800455 21.624034 10 20 10 z "
       id="path3852" />
    <rect
       style="fill:#000000;fill-opacity:1;stroke:none"
       id="rect3854"
       width="31"
       height="2"
       x="20"
       y="10" />
    <rect
       style="fill:#000000;fill-opacity:1;stroke:none"
       id="rect3892"
       width="2"
       height="39"
       x="49"
       y="12" />
    <rect
       style="fill:#000000;fill-opacity:1;stroke:none"
       id="rect3894"
       width="28"
       height="2"
       x="19"
       y="14" />
  </g>
</svg>
