<?xml version="1.0" encoding="UTF-8" standalone="no"?>
<!-- Created with Inkscape (http://www.inkscape.org/) -->

<svg
   xmlns:dc="http://purl.org/dc/elements/1.1/"
   xmlns:cc="http://creativecommons.org/ns#"
   xmlns:rdf="http://www.w3.org/1999/02/22-rdf-syntax-ns#"
   xmlns:svg="http://www.w3.org/2000/svg"
   xmlns="http://www.w3.org/2000/svg"
   xmlns:sodipodi="http://sodipodi.sourceforge.net/DTD/sodipodi-0.dtd"
   xmlns:inkscape="http://www.inkscape.org/namespaces/inkscape"
   width="64px"
   height="64px"
   id="svg3887"
   version="1.1"
   inkscape:version="0.48.2 r9819"
   sodipodi:docname="cert-3.svg">
  <defs
     id="defs3889" />
  <sodipodi:namedview
     id="base"
     pagecolor="#ffffff"
     bordercolor="#666666"
     borderopacity="1.0"
     inkscape:pageopacity="0.0"
     inkscape:pageshadow="2"
     inkscape:zoom="7.7781746"
     inkscape:cx="-5.6138168"
     inkscape:cy="37.637506"
     inkscape:current-layer="layer1"
     showgrid="true"
     inkscape:document-units="px"
     inkscape:grid-bbox="true"
     inkscape:window-width="1920"
     inkscape:window-height="948"
     inkscape:window-x="1920"
     inkscape:window-y="0"
     inkscape:window-maximized="1" />
  <metadata
     id="metadata3892">
    <rdf:RDF>
      <cc:Work
         rdf:about="">
        <dc:format>image/svg+xml</dc:format>
        <dc:type
           rdf:resource="http://purl.org/dc/dcmitype/StillImage" />
        <dc:title></dc:title>
      </cc:Work>
    </rdf:RDF>
  </metadata>
  <g
     id="layer1"
     inkscape:label="Layer 1"
     inkscape:groupmode="layer">
    <text
       xml:space="preserve"
       style="font-size:40.85215378000000186px;font-style:normal;font-weight:normal;line-height:125%;letter-spacing:0px;word-spacing:0px;fill:#000000;fill-opacity:1;stroke:none;font-family:Sans"
       x="26.21081"
       y="46.657497"
       id="text3254"
       sodipodi:linespacing="125%"
       transform="scale(0.99271269,1.0073408)"><tspan
         sodipodi:role="line"
         id="tspan3256"
         x="26.21081"
         y="46.657497">I</tspan></text>
    <g
       id="g3467"
       transform="matrix(-1,0,0,-1,64,63.977273)">
      <path
         id="path3895"
         d="M 32,3 C 15.983742,3 3,15.983742 3,32 3,48.016258 15.983742,61 32,61 48.016258,61 61,48.016258 61,32 61,15.983742 48.016258,3 32,3 z m 0,3 C 46.359404,6 58,17.640596 58,32 58,46.359404 46.359404,58 32,58 17.640596,58 6,46.359404 6,32 6,17.640596 17.640596,6 32,6 z"
         style="fill:#000000;fill-opacity:1;stroke:none"
         inkscape:connector-curvature="0" />
    </g>
    <path
       style="fill:#000080;fill-opacity:1;stroke:none"
       d="m 32,61 c 0.844314,0 1.676299,-0.05315 2.5,-0.143428 l 0,-3.836685 -5,0 0,3.836685 C 30.323701,60.946847 31.155686,61 32,61 z"
       id="rect3455"
       inkscape:connector-curvature="0" />
    <path
       inkscape:connector-curvature="0"
       id="path3481"
       d="m 32.05,2.9610227 c -0.8612,0 -1.709825,0.046541 -2.55,0.1255856 l 0,3.3594144 5.1,0 0,-3.3594144 C 33.759825,3.0075637 32.9112,2.9610227 32.05,2.9610227 z"
       style="fill:#00ff00;fill-opacity:1;stroke:none" />
  </g>
</svg>
