<?xml version="1.0" encoding="UTF-8" standalone="no"?>
<!-- Created with Inkscape (http://www.inkscape.org/) -->

<svg
   xmlns:dc="http://purl.org/dc/elements/1.1/"
   xmlns:cc="http://creativecommons.org/ns#"
   xmlns:rdf="http://www.w3.org/1999/02/22-rdf-syntax-ns#"
   xmlns:svg="http://www.w3.org/2000/svg"
   xmlns="http://www.w3.org/2000/svg"
   xmlns:sodipodi="http://sodipodi.sourceforge.net/DTD/sodipodi-0.dtd"
   xmlns:inkscape="http://www.inkscape.org/namespaces/inkscape"
   width="64px"
   height="64px"
   id="svg2985"
   version="1.1"
   inkscape:version="0.48.2 r9819"
   sodipodi:docname="cert-0.svg">
  <defs
     id="defs2987" />
  <sodipodi:namedview
     id="base"
     pagecolor="#ffffff"
     bordercolor="#666666"
     borderopacity="1.0"
     inkscape:pageopacity="0.0"
     inkscape:pageshadow="2"
     inkscape:zoom="5.5"
     inkscape:cx="-5.1034114"
     inkscape:cy="22.138707"
     inkscape:current-layer="layer1"
     showgrid="true"
     inkscape:document-units="px"
     inkscape:grid-bbox="true"
     showguides="true"
     inkscape:guide-bbox="true"
     inkscape:window-width="1920"
     inkscape:window-height="948"
     inkscape:window-x="1920"
     inkscape:window-y="0"
     inkscape:window-maximized="1" />
  <metadata
     id="metadata2990">
    <rdf:RDF>
      <cc:Work
         rdf:about="">
        <dc:format>image/svg+xml</dc:format>
        <dc:type
           rdf:resource="http://purl.org/dc/dcmitype/StillImage" />
        <dc:title></dc:title>
      </cc:Work>
    </rdf:RDF>
  </metadata>
  <g
     id="layer1"
     inkscape:label="Layer 1"
     inkscape:groupmode="layer">
    <path
       inkscape:connector-curvature="0"
       style="fill:#000000;fill-opacity:1;stroke:none"
       d="M 30.34375,2.3125 28.53125,9.25 C 29.493385,9.1043124 30.471379,9.0225926 31.46875,9 l 0,-6.6875 -1.125,0 z m 2.15625,0 0,6.6875 c 0.997532,0.021267 1.975111,0.1055973 2.9375,0.25 l -1.8125,-6.9375 -1.125,0 z"
       id="rect2993" />
    <path
       style="fill:#000000;fill-opacity:1;stroke:none"
       d="M 30.65625 6.03125 C 20.016455 6.5705824 11.057373 13.49867 7.5625 23.0625 L 10.4375 24 C 13.542287 15.630015 21.369161 9.5543939 30.6875 9.03125 L 30.6875 6.03125 C 30.677197 6.0317601 30.66655 6.0307279 30.65625 6.03125 z M 33.3125 6.03125 L 33.3125 9.03125 C 42.462591 9.5449482 50.159592 15.426115 53.375 23.5625 L 56.3125 22.78125 C 52.742133 13.35509 43.860563 6.5534917 33.3125 6.03125 z M 6.90625 25.15625 C 6.3140428 27.335401 6 29.633316 6 32 C 6 40.196845 9.7920439 47.515785 15.71875 52.28125 L 17.59375 49.9375 C 12.35486 45.721771 9 39.247866 9 32 C 9 29.959684 9.2827404 27.977509 9.78125 26.09375 L 6.90625 25.15625 z M 57.125 25.375 L 54.21875 26.125 C 54.712293 28.000005 55 29.970217 55 32 C 55 39.192142 51.700992 45.626201 46.53125 49.84375 L 48.25 52.28125 C 54.187617 47.516141 58 40.205616 58 32 C 58 29.709307 57.681004 27.491141 57.125 25.375 z M 44.78125 51.125 C 41.128852 53.566643 36.723162 55 32 55 C 27.528043 55 23.343907 53.708173 19.8125 51.5 L 17.9375 53.875 C 21.9935 56.490493 26.814964 58 32 58 C 37.369454 58 42.357345 56.382582 46.5 53.59375 L 44.78125 51.125 z "
       id="path3003" />
    <path
       inkscape:connector-curvature="0"
       id="path3037"
       d="M 3.2536994,24.401245 9.2915607,28.26884 C 9.4503196,27.308775 9.6748162,26.353395 9.961534,25.397857 L 3.6013435,23.331306 3.2536994,24.401245 z m 0.6663179,-2.050716 6.3601907,2.066551 c 0.32848,-0.942137 0.710772,-1.845811 1.145501,-2.716474 L 4.2676614,21.28059 3.9200173,22.350529 z"
       style="fill:#000000;fill-opacity:1;stroke:none" />
    <path
       style="fill:#000000;fill-opacity:1;stroke:none"
       d="m 15.890059,56.991212 5.544103,-4.547195 c -0.864016,-0.447665 -1.703264,-0.956403 -2.523433,-1.524365 l -3.930814,5.410301 0.910144,0.661259 z M 14.145616,55.7238 18.07643,50.313498 c -0.79452,-0.60354 -1.53583,-1.246371 -2.229541,-1.928873 l -2.611417,6.677916 0.910144,0.661259 z"
       id="path3043"
       inkscape:connector-curvature="0" />
    <path
       inkscape:connector-curvature="0"
       id="path3049"
       d="m 50.789808,55.044173 -2.611417,-6.677916 c -0.69275,0.683393 -1.43593,1.324356 -2.229541,1.928873 l 3.930814,5.410302 0.910144,-0.661259 z m -1.744443,1.267412 -3.930814,-5.410301 c -0.81952,0.569129 -1.659966,1.075511 -2.523433,1.524365 l 5.544103,4.547195 0.910144,-0.661259 z"
       style="fill:#000000;fill-opacity:1;stroke:none" />
    <path
       style="fill:#000000;fill-opacity:1;stroke:none"
       d="m 59.72268,21.250871 -7.158047,0.420015 c 0.435873,0.870025 0.81581,1.7749 1.145501,2.716474 l 6.360191,-2.066551 -0.347645,-1.069938 z m 0.666318,2.050715 -6.36019,2.066551 c 0.288028,0.955282 0.509914,1.911074 0.669973,2.870983 l 6.037861,-3.867595 -0.347644,-1.069939 z"
       id="path3055"
       inkscape:connector-curvature="0" />
  </g>
</svg>
